<svg xmlns="http://www.w3.org/2000/svg" width="24" height="24" viewBox="0 0 24 24">
  <path fill="#25F4EE" d="M20.7 5.8a5.8 5.8 0 0 1-3.2-2.1h-2.3v12.1a2.6 2.6 0 0 1-4.7 1.5 2.6 2.6 0 0 1 3-4v-3.1a5.7 5.7 0 1 0 4.9 5.6V9.4a8 8 0 0 0 4.7 1.5V7.8a4.8 4.8 0 0 1-2.4-2z" />
  <path fill="#FE2C55" d="M19.6 6.9a5.8 5.8 0 0 1-3.2-2.1h-1.2v12.1a2.6 2.6 0 0 1-4.7 1.5 2.6 2.6 0 0 1 1.9-4.4v-3.1A5.7 5.7 0 0 0 7 18.3a5.7 5.7 0 0 0 10.2-3.5V8.4a8 8 0 0 0 4.7 1.5V6.8a4.8 4.8 0 0 1-2.3.1z" />
  <path fill="#000000" d="M16.4 4.8a5.8 5.8 0 0 1-.8-1.1h-2.3v12.1a2.6 2.6 0 0 1-3.8 2.3 2.6 2.6 0 0 0 4.6-1.6V4.4h2.3z" />
</svg>
